<?xml version="1.0" encoding="iso-8859-1"?>
<!-- Generator: Adobe Illustrator 19.0.0, SVG Export Plug-In . SVG Version: 6.00 Build 0)  -->
<svg version="1.1" id="Layer_1" xmlns="http://www.w3.org/2000/svg" xmlns:xlink="http://www.w3.org/1999/xlink" x="0px" y="0px"
	 viewBox="0 0 512 512" style="enable-background:new 0 0 512 512;" xml:space="preserve">
<g>
	<g>
		<path d="M501.106,43.574H10.894C4.878,43.574,0,48.452,0,54.468v403.064c0,6.016,4.878,10.894,10.894,10.894h490.213
			c6.016,0,10.894-4.878,10.894-10.894V54.468C512,48.452,507.122,43.574,501.106,43.574z M490.213,446.638H21.787V65.362h468.426
			V446.638z"/>
	</g>
</g>
<g>
	<g>
		<path d="M328.17,118.468c-78.09,0-141.617,63.527-141.617,141.617S250.08,401.702,328.17,401.702s141.617-63.527,141.617-141.617
			S406.261,118.468,328.17,118.468z M328.17,379.915c-66.074,0-119.83-53.755-119.83-119.83s53.755-119.83,119.83-119.83
			S448,194.011,448,260.085S394.245,379.915,328.17,379.915z"/>
	</g>
</g>
<g>
	<g>
		<path d="M328.17,205.617c-11.082,0-21.378,3.367-29.989,9.074l-16.777-16.776c-4.255-4.255-11.149-4.255-15.404,0
			s-4.255,11.149,0,15.404l16.776,16.777c-5.707,8.612-9.074,18.907-9.074,29.989c0,30.032,24.436,54.468,54.468,54.468
			s54.468-24.436,54.468-54.468C382.638,230.053,358.202,205.617,328.17,205.617z M328.17,292.766
			c-18.021,0-32.681-14.659-32.681-32.681c0-18.021,14.66-32.681,32.681-32.681s32.681,14.66,32.681,32.681
			C360.851,278.106,346.192,292.766,328.17,292.766z"/>
	</g>
</g>
<g>
	<g>
		<rect x="98.043" y="141.617" width="21.787" height="228.766"/>
	</g>
</g>
<g>
</g>
<g>
</g>
<g>
</g>
<g>
</g>
<g>
</g>
<g>
</g>
<g>
</g>
<g>
</g>
<g>
</g>
<g>
</g>
<g>
</g>
<g>
</g>
<g>
</g>
<g>
</g>
<g>
</g>
</svg>
