<svg xmlns="http://www.w3.org/2000/svg" width="24" height="21.333" viewBox="0 0 24 21.333"><path d="M21.03,13.333H8.816l.273,1.333H20.272a1,1,0,0,1,.975,1.222l-.23,1.011a2.334,2.334,0,1,1-2.65.434H9.632a2.333,2.333,0,1,1-2.794-.357L3.912,2.667H1a1,1,0,0,1-1-1V1A1,1,0,0,1,1,0H5.272a1,1,0,0,1,.98.8l.382,1.867H23a1,1,0,0,1,.975,1.222l-1.97,8.667A1,1,0,0,1,21.03,13.333ZM16.793,8H15V5.5a.5.5,0,0,0-.5-.5h-1a.5.5,0,0,0-.5.5V8H11.207a.5.5,0,0,0-.354.854l2.793,2.793a.5.5,0,0,0,.707,0l2.793-2.793A.5.5,0,0,0,16.793,8Z" fill="#fff"/></svg>