<svg xmlns="http://www.w3.org/2000/svg" xmlns:xlink="http://www.w3.org/1999/xlink" width="79.259" height="90" viewBox="0 0 79.259 90"><defs><linearGradient id="a" x1="-0.509" y1="-0.175" x2="2.196" y2="1" gradientUnits="objectBoundingBox"><stop offset="0" stop-color="#0a2a54"/><stop offset="1" stop-color="#25fcf4"/></linearGradient></defs><g transform="translate(-356.183 -277.124)"><g transform="translate(358.991 285.949)"><path d="M434.153,288.488c0-3.642-2.338-6.591-5.214-6.591H362.912c-2.877,0-5.21,2.949-5.21,6.591v22.826h76.451Z" transform="translate(-357.702 -281.897)" fill="#25fcf4"/><path d="M357.7,297.808V345c0,2.521,2.333,4.567,5.21,4.567h66.026c2.877,0,5.214-2.046,5.214-4.567V297.808Z" transform="translate(-357.702 -268.391)" fill="#25fcf4"/></g><path d="M432.633,288.488c0-3.642-2.335-6.591-5.21-6.591H361.4c-2.88,0-5.214,2.949-5.214,6.591v22.826h76.45Z" transform="translate(0 4.052)" fill="#76afce"/><g transform="translate(367.294 277.124)"><path d="M369.024,289.8a3.1,3.1,0,1,1-3.1-3.1A3.095,3.095,0,0,1,369.024,289.8Z" transform="translate(-361.216 -268.995)" fill="#25fcf4"/><path d="M367.439,289.248a2.054,2.054,0,1,1-2.054-2.049A2.054,2.054,0,0,1,367.439,289.248Z" transform="translate(-360.794 -268.572)" fill="#0a2a54"/><path d="M366.437,299.078a1.274,1.274,0,0,1-.828-.3,11.78,11.78,0,0,1-3.356-6.924c-.808-5.138.063-9.66,2.4-12.395a6.225,6.225,0,0,1,4.731-2.331c6.1,0,7.05,8.442,7.083,8.8H373.9c-.007-.065-.717-6.236-4.517-6.236a3.706,3.706,0,0,0-2.783,1.437c-1.828,2.135-2.5,5.994-1.817,10.326a9.265,9.265,0,0,0,2.492,5.384,1.28,1.28,0,0,1-.843,2.246Z" transform="translate(-361.959 -277.124)" fill="#25fcf4"/></g><g transform="translate(387.484 277.124)"><path d="M369.024,289.8a3.1,3.1,0,1,1-3.1-3.1A3.095,3.095,0,0,1,369.024,289.8Z" transform="translate(-361.216 -268.995)" fill="#25fcf4"/><path d="M367.439,289.248a2.054,2.054,0,1,1-2.054-2.049A2.054,2.054,0,0,1,367.439,289.248Z" transform="translate(-360.794 -268.572)" fill="#0a2a54"/><path d="M366.437,299.078a1.274,1.274,0,0,1-.828-.3,11.78,11.78,0,0,1-3.356-6.924c-.808-5.138.063-9.66,2.4-12.395a6.225,6.225,0,0,1,4.731-2.331c6.1,0,7.05,8.442,7.083,8.8H373.9c-.007-.065-.717-6.236-4.517-6.236a3.706,3.706,0,0,0-2.783,1.437c-1.828,2.135-2.5,5.994-1.817,10.326a9.265,9.265,0,0,0,2.492,5.384,1.28,1.28,0,0,1-.843,2.246Z" transform="translate(-361.959 -277.124)" fill="#25fcf4"/></g><g transform="translate(408.001 277.124)"><path d="M369.024,289.8a3.1,3.1,0,1,1-3.1-3.1A3.095,3.095,0,0,1,369.024,289.8Z" transform="translate(-361.216 -268.995)" fill="#25fcf4"/><path d="M367.439,289.248a2.054,2.054,0,1,1-2.054-2.049A2.054,2.054,0,0,1,367.439,289.248Z" transform="translate(-360.794 -268.572)" fill="#0a2a54"/><path d="M366.437,299.078a1.274,1.274,0,0,1-.828-.3,11.78,11.78,0,0,1-3.356-6.924c-.808-5.138.063-9.66,2.4-12.395a6.225,6.225,0,0,1,4.731-2.331c6.1,0,7.05,8.442,7.083,8.8H373.9c-.007-.065-.717-6.236-4.517-6.236a3.706,3.706,0,0,0-2.783,1.437c-1.828,2.135-2.5,5.994-1.817,10.326a9.265,9.265,0,0,0,2.492,5.384,1.28,1.28,0,0,1-.843,2.246Z" transform="translate(-361.959 -277.124)" fill="#25fcf4"/></g><g transform="translate(376.063 277.124)"><path d="M369.024,289.8a3.1,3.1,0,1,1-3.1-3.1A3.095,3.095,0,0,1,369.024,289.8Z" transform="translate(-361.216 -268.995)" fill="#25fcf4"/><path d="M367.439,289.248a2.054,2.054,0,1,1-2.054-2.049A2.054,2.054,0,0,1,367.439,289.248Z" transform="translate(-360.794 -268.572)" fill="#0a2a54"/><path d="M366.437,299.078a1.274,1.274,0,0,1-.828-.3,11.78,11.78,0,0,1-3.356-6.924c-.808-5.138.063-9.66,2.4-12.395a6.225,6.225,0,0,1,4.731-2.331c6.1,0,7.05,8.442,7.083,8.8H373.9c-.007-.065-.717-6.236-4.517-6.236a3.706,3.706,0,0,0-2.783,1.437c-1.828,2.135-2.5,5.994-1.817,10.326a9.265,9.265,0,0,0,2.492,5.384,1.28,1.28,0,0,1-.843,2.246Z" transform="translate(-361.959 -277.124)" fill="#25fcf4"/></g><g transform="translate(398.904 277.124)"><path d="M369.024,289.8a3.1,3.1,0,1,1-3.1-3.1A3.095,3.095,0,0,1,369.024,289.8Z" transform="translate(-361.216 -268.995)" fill="#25fcf4"/><path d="M367.439,289.248a2.054,2.054,0,1,1-2.054-2.049A2.054,2.054,0,0,1,367.439,289.248Z" transform="translate(-360.794 -268.572)" fill="#0a2a54"/><path d="M366.437,299.078a1.274,1.274,0,0,1-.828-.3,11.78,11.78,0,0,1-3.356-6.924c-.808-5.138.063-9.66,2.4-12.395a6.225,6.225,0,0,1,4.731-2.331c6.1,0,7.05,8.442,7.083,8.8H373.9c-.007-.065-.717-6.236-4.517-6.236a3.706,3.706,0,0,0-2.783,1.437c-1.828,2.135-2.5,5.994-1.817,10.326a9.265,9.265,0,0,0,2.492,5.384,1.28,1.28,0,0,1-.843,2.246Z" transform="translate(-361.959 -277.124)" fill="#25fcf4"/></g><path d="M432.633,297.808h-76.45v68.2c0,3.644,2.335,6.6,5.214,6.6h55.476l15.76-19.951Z" transform="translate(0 -5.486)" fill="#e6f4f3"/><g transform="translate(370.012 314.715)"><path d="M391.086,343.432H368.709v-5.088q2.413-2.285,4.554-4.384t4.188-4.358a43.072,43.072,0,0,0,5.65-7.29,11.622,11.622,0,0,0,1.509-5.665,6.955,6.955,0,0,0-.473-2.651,5.214,5.214,0,0,0-1.307-1.9,5.7,5.7,0,0,0-1.969-1.1,7.83,7.83,0,0,0-2.459-.37,11.062,11.062,0,0,0-2.616.329,19.91,19.91,0,0,0-2.548.817,13.226,13.226,0,0,0-1.969,1c-.632.386-1.144.721-1.536,1h-.268v-5.164a23.428,23.428,0,0,1,4.2-1.47,19.715,19.715,0,0,1,5.1-.717q5.067,0,7.935,2.688a9.511,9.511,0,0,1,2.877,7.294,14.335,14.335,0,0,1-1.877,7.257,23.068,23.068,0,0,1-2.169,3.141c-.839,1.035-1.736,2.058-2.675,3.064q-2.291,2.485-5.1,5.162t-4.491,4.239h17.823Z" transform="translate(-368.709 -306.425)" fill="url(#a)"/><path d="M405.225,331.546a13.761,13.761,0,0,1-.839,4.87,11.7,11.7,0,0,1-2.348,3.872,10.819,10.819,0,0,1-3.81,2.605,13.15,13.15,0,0,1-5.1.948A23.174,23.174,0,0,1,388,343.27a19.2,19.2,0,0,1-4.367-1.5v-5.136h.34a11.825,11.825,0,0,0,1.607.941,23.954,23.954,0,0,0,2.313.984,25.06,25.06,0,0,0,2.629.791,11.775,11.775,0,0,0,2.679.279,8.014,8.014,0,0,0,2.851-.523,5.762,5.762,0,0,0,2.383-1.694,7.416,7.416,0,0,0,1.376-2.509,10.791,10.791,0,0,0,.477-3.382,8.257,8.257,0,0,0-.523-3.165,5.13,5.13,0,0,0-1.523-2.045,5.978,5.978,0,0,0-2.57-1.3,14.213,14.213,0,0,0-3.4-.375,26.009,26.009,0,0,0-3.968.305q-2,.3-3.191.573V306.832h19.894v4.26H389.815v9.644c.584-.065,1.159-.113,1.729-.146s1.085-.048,1.559-.048a20.412,20.412,0,0,1,4.7.462,10.042,10.042,0,0,1,3.7,1.8,9,9,0,0,1,2.762,3.406A12.606,12.606,0,0,1,405.225,331.546Z" transform="translate(-356.043 -306.079)" fill="url(#a)"/></g><path d="M397.722,347.426h13.351a6.6,6.6,0,0,0,6.593-6.6V327.475Z" transform="translate(14.968 19.698)" fill="#f6f6f6"/><path d="M407.054,329.085,388.008,346.06h17.959Z" transform="translate(12.184 21.064)" fill="#d5d5d5"/><path d="M417.666,327.475H404.311a6.594,6.594,0,0,0-6.589,6.6v13.351Z" transform="translate(14.968 19.698)" fill="#fff"/></g></svg>