<svg xmlns="http://www.w3.org/2000/svg" width="127.895" height="100" viewBox="0 0 127.895 100"><g transform="translate(-26.322 -25.509)"><g transform="translate(26.322 116.14)"><path d="M126.7,99.411c0,2.589-22.472,4.684-50.19,4.684S26.322,102,26.322,99.411s22.468-4.685,50.187-4.685S126.7,96.825,126.7,99.411Z" transform="translate(-26.322 -94.726)" fill="#fff"/><path d="M125.959,99.384c0,2.559-22.2,4.629-49.591,4.629s-49.589-2.07-49.589-4.629,22.2-4.629,49.589-4.629S125.959,96.829,125.959,99.384Z" transform="translate(-26.181 -94.717)" fill="#fefefe"/><path d="M125.22,99.357c0,2.528-21.935,4.574-48.992,4.574s-48.992-2.045-48.992-4.574,21.932-4.572,48.992-4.572S125.22,96.834,125.22,99.357Z" transform="translate(-26.039 -94.708)" fill="#fdfdfd"/><path d="M124.48,99.33c0,2.5-21.666,4.517-48.395,4.517s-48.392-2.02-48.392-4.517,21.665-4.516,48.392-4.516S124.48,96.837,124.48,99.33Z" transform="translate(-25.898 -94.699)" fill="#fcfdfd"/><path d="M123.74,99.3c0,2.466-21.4,4.461-47.8,4.461s-47.794-2-47.794-4.461,21.4-4.461,47.794-4.461S123.74,96.841,123.74,99.3Z" transform="translate(-25.756 -94.69)" fill="#fbfcfc"/><path d="M123,99.278c0,2.435-21.131,4.406-47.2,4.406s-47.2-1.971-47.2-4.406,21.129-4.406,47.2-4.406S123,96.847,123,99.278Z" transform="translate(-25.615 -94.681)" fill="#fafbfb"/><path d="M122.26,99.251c0,2.4-20.864,4.35-46.6,4.35s-46.6-1.946-46.6-4.35,20.861-4.35,46.6-4.35S122.26,96.851,122.26,99.251Z" transform="translate(-25.474 -94.672)" fill="#f9fafa"/><path d="M121.521,99.223c0,2.375-20.6,4.295-46,4.295s-46-1.92-46-4.295,20.593-4.293,46-4.293S121.521,96.855,121.521,99.223Z" transform="translate(-25.332 -94.663)" fill="#f8f9f9"/><path d="M120.781,99.2c0,2.342-20.328,4.238-45.4,4.238s-45.4-1.9-45.4-4.238,20.326-4.238,45.4-4.238S120.781,96.859,120.781,99.2Z" transform="translate(-25.191 -94.654)" fill="#f7f9f9"/><path d="M120.041,99.171c0,2.312-20.06,4.182-44.8,4.182s-44.8-1.87-44.8-4.182,20.058-4.182,44.8-4.182S120.041,96.863,120.041,99.171Z" transform="translate(-25.05 -94.645)" fill="#f6f8f8"/><path d="M119.3,99.144c0,2.282-19.793,4.126-44.206,4.126s-44.2-1.844-44.2-4.126,19.79-4.126,44.2-4.126S119.3,96.868,119.3,99.144Z" transform="translate(-24.908 -94.636)" fill="#f5f7f7"/><path d="M118.562,99.118c0,2.251-19.524,4.071-43.608,4.071s-43.6-1.82-43.6-4.071,19.523-4.071,43.6-4.071S118.562,96.871,118.562,99.118Z" transform="translate(-24.767 -94.627)" fill="#f4f6f6"/><path d="M117.822,99.092c0,2.219-19.256,4.015-43.009,4.015s-43.007-1.8-43.007-4.015,19.254-4.016,43.007-4.016S117.822,96.875,117.822,99.092Z" transform="translate(-24.625 -94.618)" fill="#f3f6f6"/><ellipse cx="42.41" cy="3.959" rx="42.41" ry="3.959" transform="translate(7.778 0.497)" fill="#f2f5f5"/><path d="M116.342,99.037c0,2.159-18.72,3.9-41.812,3.9s-41.81-1.745-41.81-3.9,18.719-3.9,41.81-3.9S116.342,96.884,116.342,99.037Z" transform="translate(-24.343 -94.599)" fill="#f1f4f4"/><path d="M115.6,99.011c0,2.128-18.452,3.848-41.213,3.848s-41.213-1.721-41.213-3.848,18.452-3.847,41.213-3.847S115.6,96.888,115.6,99.011Z" transform="translate(-24.201 -94.59)" fill="#f0f3f3"/><path d="M114.863,98.984c0,2.1-18.185,3.792-40.616,3.792s-40.613-1.694-40.613-3.792,18.183-3.792,40.613-3.792S114.863,96.893,114.863,98.984Z" transform="translate(-24.06 -94.582)" fill="#eff2f2"/><ellipse cx="40.016" cy="3.736" rx="40.016" ry="3.736" transform="translate(10.172 0.649)" fill="#eef2f2"/><path d="M113.383,98.93c0,2.036-17.649,3.681-39.419,3.681s-39.418-1.645-39.418-3.681,17.648-3.679,39.418-3.679S113.383,96.9,113.383,98.93Z" transform="translate(-23.777 -94.564)" fill="#edf1f1"/><path d="M112.643,98.9c0,2-17.381,3.624-38.821,3.624s-38.818-1.62-38.818-3.624,17.379-3.623,38.818-3.623S112.643,96.9,112.643,98.9Z" transform="translate(-23.636 -94.554)" fill="#edf0f0"/><path d="M111.9,98.878c0,1.973-17.112,3.568-38.222,3.568s-38.221-1.595-38.221-3.568S52.573,95.31,73.682,95.31,111.9,96.909,111.9,98.878Z" transform="translate(-23.495 -94.545)" fill="#ecefef"/><path d="M111.164,98.851c0,1.943-16.845,3.513-37.624,3.513s-37.622-1.57-37.622-3.513,16.845-3.512,37.622-3.512S111.164,96.914,111.164,98.851Z" transform="translate(-23.353 -94.536)" fill="#ebeeee"/><path d="M110.424,98.825c0,1.912-16.577,3.457-37.025,3.457s-37.024-1.545-37.024-3.457S52.952,95.368,73.4,95.368,110.424,96.918,110.424,98.825Z" transform="translate(-23.212 -94.527)" fill="#eaeeee"/><path d="M109.685,98.8c0,1.882-16.308,3.4-36.427,3.4s-36.426-1.52-36.426-3.4,16.31-3.4,36.426-3.4S109.685,96.921,109.685,98.8Z" transform="translate(-23.07 -94.518)" fill="#e9eded"/><path d="M108.945,98.77c0,1.851-16.04,3.347-35.829,3.347s-35.827-1.5-35.827-3.347,16.043-3.343,35.827-3.343S108.945,96.926,108.945,98.77Z" transform="translate(-22.929 -94.509)" fill="#e8ecec"/><path d="M108.205,98.744c0,1.82-15.773,3.29-35.23,3.29s-35.229-1.47-35.229-3.29,15.774-3.288,35.229-3.288S108.205,96.93,108.205,98.744Z" transform="translate(-22.788 -94.5)" fill="#e7ebeb"/><path d="M107.465,98.718c0,1.789-15.5,3.234-34.632,3.234S38.2,100.506,38.2,98.718s15.506-3.233,34.631-3.233S107.465,96.934,107.465,98.718Z" transform="translate(-22.646 -94.491)" fill="#e6eaea"/><path d="M106.726,98.691c0,1.758-15.237,3.179-34.033,3.179S38.66,100.449,38.66,98.691,53.9,95.514,72.692,95.514,106.726,96.939,106.726,98.691Z" transform="translate(-22.505 -94.482)" fill="#e5eaea"/><path d="M105.986,98.665c0,1.727-14.969,3.122-33.435,3.122s-33.434-1.394-33.434-3.122,14.97-3.122,33.434-3.122S105.986,96.943,105.986,98.665Z" transform="translate(-22.363 -94.473)" fill="#e4e9e9"/><path d="M105.247,98.637c0,1.7-14.7,3.068-32.838,3.068s-32.835-1.371-32.835-3.068,14.7-3.065,32.835-3.065S105.247,96.948,105.247,98.637Z" transform="translate(-22.222 -94.464)" fill="#e3e8e8"/><path d="M104.508,98.611c0,1.666-14.435,3.012-32.24,3.012s-32.237-1.346-32.237-3.012S54.466,95.6,72.268,95.6,104.508,96.951,104.508,98.611Z" transform="translate(-22.081 -94.455)" fill="#e2e7e7"/><path d="M103.766,98.585c0,1.634-14.165,2.955-31.64,2.955s-31.639-1.321-31.639-2.955,14.167-2.954,31.639-2.954S103.766,96.956,103.766,98.585Z" transform="translate(-21.939 -94.446)" fill="#e1e7e7"/><path d="M103.027,98.558c0,1.605-13.9,2.9-31.041,2.9s-31.041-1.295-31.041-2.9,13.9-2.9,31.041-2.9S103.027,96.959,103.027,98.558Z" transform="translate(-21.798 -94.437)" fill="#e0e6e6"/><path d="M102.287,98.532c0,1.573-13.629,2.844-30.443,2.844S41.4,100.1,41.4,98.532s13.632-2.843,30.442-2.843S102.287,96.964,102.287,98.532Z" transform="translate(-21.657 -94.428)" fill="#dfe5e5"/><path d="M101.547,98.5c0,1.542-13.362,2.789-29.845,2.789S41.859,100.047,41.859,98.5,55.223,95.718,71.7,95.718,101.547,96.968,101.547,98.5Z" transform="translate(-21.515 -94.419)" fill="#dee4e4"/><path d="M100.808,98.478c0,1.511-13.094,2.731-29.246,2.731s-29.246-1.22-29.246-2.731,13.1-2.73,29.246-2.73S100.808,96.972,100.808,98.478Z" transform="translate(-21.374 -94.41)" fill="#dde3e3"/><path d="M100.068,98.451c0,1.482-12.825,2.676-28.648,2.676s-28.647-1.194-28.647-2.676S55.6,95.776,71.42,95.776,100.068,96.977,100.068,98.451Z" transform="translate(-21.232 -94.401)" fill="#dce3e3"/><path d="M99.328,98.425c0,1.449-12.558,2.621-28.05,2.621S43.23,99.874,43.23,98.425s12.56-2.619,28.048-2.619S99.328,96.981,99.328,98.425Z" transform="translate(-21.091 -94.392)" fill="#dbe2e2"/><path d="M98.588,98.4c0,1.421-12.29,2.566-27.451,2.566S43.686,99.818,43.686,98.4s12.294-2.562,27.451-2.562S98.588,96.985,98.588,98.4Z" transform="translate(-20.95 -94.383)" fill="#dae1e1"/></g><g transform="translate(34.263 25.509)"><g transform="translate(65.628 12.925)"><g transform="translate(0)"><path d="M135.008,53.063c0,9.765-10.432,17.681-23.3,17.681s-23.3-7.915-23.3-17.681,10.432-17.683,23.3-17.683S135.008,43.3,135.008,53.063Z" transform="translate(-80.683 -35.38)" fill="#e6f4f3"/><path d="M95.13,53.236S86.5,63.636,82.508,68.562c0,0,24.011-7.144,30.406-9.037Z" transform="translate(-82.508 -29.856)" fill="#e6f4f3"/></g><g transform="translate(19.572 14.279)"><g transform="translate(0 0.374)"><path d="M102.178,49.44a2.361,2.361,0,1,1-2.362-2.359A2.362,2.362,0,0,1,102.178,49.44Z" transform="translate(-97.456 -46.413)" fill="#0a2a54"/><path d="M110.537,49.6a3.03,3.03,0,1,1-3.03-3.027A3.029,3.029,0,0,1,110.537,49.6Z" transform="translate(-95.284 -46.571)" fill="#0a2a54"/></g><path d="M118.444,49.687a3.4,3.4,0,1,1-3.4-3.4A3.4,3.4,0,0,1,118.444,49.687Z" transform="translate(-93.067 -46.285)" fill="#0a2a54"/></g></g><g transform="translate(0 3.326)"><path d="M68.21,100.868S55.2,105.267,51.9,99.491s.917-17.719.917-17.719S70.331,79.1,72.993,78.918s17.15-.9,18.42,2.964S80.174,100.709,68.21,100.868Z" transform="translate(-26.739 -12.363)" fill="#f2f2f2"/><g transform="translate(0 0)"><path d="M66.535,65.147,56.056,59.9V83.637a14.759,14.759,0,0,0,10.479,4.855c7.584,0,10.463-4.47,10.463-4.47V63.4Z" transform="translate(-25.064 -18.197)" fill="#ffdba8"/><path d="M77,67.487S72,72.1,56.056,80.763l.035-15.52Z" transform="translate(-25.064 -16.542)" fill="#f0bd6d"/><path d="M65.589,77.324v8.827l-2.67.956-3.806-6.491S62.7,77.561,65.589,77.324Z" transform="translate(-24.119 -12.804)" fill="#598997"/><path d="M56.541,72.783,54.53,73.815l4.8,16.493,7.674-11.579S62.7,78.076,56.541,72.783Z" transform="translate(-25.536 -14.209)" fill="#dfe1de"/><g transform="translate(22.375)"><path d="M51.641,55.407S54.12,74.6,54.633,75.531s10.2,6.218,13.421,5.981V35.082S47.753,26.643,51.641,55.407Z" transform="translate(-48.958 -26.23)" fill="#ffdba8"/><path d="M80.463,55.194s-2.471,19.192-2.995,20.124-10.2,6.218-13.409,5.981V34.868S83.147,30.831,80.463,55.194Z" transform="translate(-44.963 -26.017)" fill="#ffdba8"/><path d="M74.378,62.261s2.836,1.054,4.588-4.536c2.009-6.437.621-9.331-1.2-9.139A3.858,3.858,0,0,0,76.229,49a3.681,3.681,0,0,0-1.569,2.053Z" transform="translate(-41.771 -21.698)" fill="#ffdba8"/><path d="M55.057,62.261s-2.84,1.054-4.593-4.536c-2.01-6.437-.621-9.331,1.2-9.139A3.838,3.838,0,0,1,53.2,49a3.686,3.686,0,0,1,1.571,2.053Z" transform="translate(-49.475 -21.698)" fill="#ffdba8"/><g transform="translate(0.484)"><g transform="translate(0 8.063)"><path d="M50.231,38.066C48.822,41.919,51.719,53.4,51.719,53.4l1.891,2.933-.445-6.449S57.2,41.135,56.1,37.9l-2.56-3.694S50.686,36.8,50.231,38.066Z" transform="translate(-49.845 -34.207)" fill="#25fcf4"/></g><g transform="translate(30.77 8.063)"><path d="M79.4,38.066c1.41,3.854-1.486,15.334-1.486,15.334l-1.891,2.933.445-6.449S72.431,41.135,73.536,37.9l2.557-3.694S78.948,36.8,79.4,38.066Z" transform="translate(-73.345 -34.207)" fill="#25fcf4"/></g><path d="M67.583,28.049c-4.872-.005-11.889,2.206-14.915,8.063l2.56,3.694S62.1,43.477,67.765,43.9c3.56.264,9.249.439,13.573-2.992l1.152-4.794S78.988,28.075,67.583,28.049Z" transform="translate(-48.972 -28.049)" fill="#25fcf4"/></g></g><path d="M64.059,77.324v8.827l2.658.956,3.816-6.491S66.94,77.561,64.059,77.324Z" transform="translate(-22.588 -12.804)" fill="#4dbbc9"/><path d="M74.522,72.651l2.243,1.408L71.943,90.236,64.059,78.77S68.366,77.946,74.522,72.651Z" transform="translate(-22.588 -14.25)" fill="#faf8fa"/><g transform="translate(0 59.605)"><path d="M54.78,90.35l2.205-3.175,1.1-1.591-4.008-6.6-1.5-2.456-.029-.046S36.9,83.632,36.879,83.661c-1.117,1.212-3.139,12.019-4.492,21.394H65.941Z" transform="translate(-32.387 -72.67)" fill="#20549a"/><path d="M81.256,90.35,70.1,105.055h33.558c-1.36-9.375-3.386-20.181-4.492-21.394-.025-.029-15.679-7.177-15.679-7.177l-5.533,9.1Z" transform="translate(-20.719 -72.67)" fill="#20549a"/><path d="M65.192,102.709V84.065l-2.67.956S60.818,92.753,60.4,96.7l1.752,6.006Z" transform="translate(-23.721 -70.324)" fill="#598997"/><path d="M67.089,102.709,68.842,96.7c-.411-3.95-2.125-11.682-2.125-11.682l-2.658-.956v18.644Z" transform="translate(-22.588 -70.324)" fill="#4dbbc9"/><path d="M53.322,86.485l-1.1,1.591-2.2,3.175,11.161,14.7h4.874L64.3,99.95,58.394,79.683l-1.778-6.112-8.829,3.814,1.527,2.5Z" transform="translate(-27.623 -73.571)" fill="#25fcf4"/><path d="M82.391,91.2l-3.3-4.766,5.533-9.1-8.591-3.611-1.765,5.9-5.612,18.84-2.224,7.442h4.8Z" transform="translate(-21.855 -73.523)" fill="#25fcf4"/></g></g></g><path d="M43.727,55.434l.922,7.875c.295,2.518,3.226,4.249,6.548,3.861l.334-.039L49.646,51.067c-.031-.484-.052-.962-.052-1.432,0-12.209,9.493-22.138,21.157-22.138S91.9,37.426,91.9,49.634c0,.477-.022.96-.055,1.457l-1.723,14.7L84,74.179a2.69,2.69,0,0,0-3.073.773l-5.333,6.423a2.692,2.692,0,0,0,4.146,3.435l5.332-6.42a2.69,2.69,0,0,0,.34-2.9l6.036-8.271c2.822-.08,5.146-1.683,5.406-3.912l.923-7.875c.244-2.1-1.426-4.091-3.915-4.914.013-.3.026-.593.026-.885,0-13.3-10.373-24.125-23.135-24.125S47.606,36.33,47.606,49.634c0,.292.02.587.029.885C45.153,51.343,43.481,53.335,43.727,55.434Z" transform="translate(-28.886 -25.509)" fill="#76afce"/></g></g></svg>