<svg xmlns="http://www.w3.org/2000/svg" width="141.408" height="100" viewBox="0 0 141.408 100"><g transform="translate(-170.985 -350.583)"><g transform="translate(170.985 350.583)"><g transform="translate(0 43.099)"><path d="M227.211,382.462c0,1.51-12.587,2.731-28.113,2.731s-28.113-1.221-28.113-2.731,12.587-2.734,28.113-2.734S227.211,380.95,227.211,382.462Z" transform="translate(-170.985 -379.728)" fill="#fff"/><path d="M226.767,382.434c0,1.489-12.437,2.7-27.778,2.7s-27.778-1.208-27.778-2.7,12.437-2.7,27.778-2.7S226.767,380.937,226.767,382.434Z" transform="translate(-170.876 -379.728)" fill="#fefefe"/><path d="M226.324,382.4c0,1.473-12.287,2.666-27.442,2.666s-27.443-1.193-27.443-2.666,12.287-2.671,27.443-2.671S226.324,380.925,226.324,382.4Z" transform="translate(-170.768 -379.726)" fill="#fdfdfd"/><path d="M225.88,382.373c0,1.455-12.136,2.632-27.108,2.632s-27.108-1.177-27.108-2.632,12.136-2.638,27.108-2.638S225.88,380.912,225.88,382.373Z" transform="translate(-170.659 -379.725)" fill="#fcfdfd"/><path d="M225.436,382.343c0,1.437-11.987,2.6-26.772,2.6s-26.772-1.164-26.772-2.6,11.986-2.606,26.772-2.606S225.436,380.9,225.436,382.343Z" transform="translate(-170.551 -379.724)" fill="#fbfcfc"/><path d="M224.993,382.312c0,1.42-11.836,2.57-26.438,2.57s-26.436-1.151-26.436-2.57,11.836-2.572,26.436-2.572S224.993,380.891,224.993,382.312Z" transform="translate(-170.442 -379.722)" fill="#fafbfb"/><path d="M224.549,382.281c0,1.4-11.687,2.536-26.1,2.536s-26.1-1.134-26.1-2.536,11.687-2.539,26.1-2.539S224.549,380.878,224.549,382.281Z" transform="translate(-170.334 -379.721)" fill="#f9fafa"/><path d="M224.1,382.252c0,1.383-11.536,2.5-25.766,2.5s-25.766-1.121-25.766-2.5,11.536-2.508,25.766-2.508S224.1,380.865,224.1,382.252Z" transform="translate(-170.225 -379.72)" fill="#f8f9f9"/><path d="M223.662,382.221c0,1.366-11.387,2.471-25.432,2.471s-25.432-1.1-25.432-2.471,11.387-2.474,25.432-2.474S223.662,380.852,223.662,382.221Z" transform="translate(-170.117 -379.719)" fill="#f7f9f9"/><path d="M223.22,382.192c0,1.346-11.237,2.438-25.1,2.438s-25.1-1.093-25.1-2.438,11.236-2.442,25.1-2.442S223.22,380.84,223.22,382.192Z" transform="translate(-170.008 -379.717)" fill="#f6f8f8"/><path d="M222.774,382.161c0,1.329-11.085,2.406-24.761,2.406s-24.761-1.077-24.761-2.406,11.085-2.409,24.761-2.409S222.774,380.829,222.774,382.161Z" transform="translate(-169.9 -379.716)" fill="#f5f7f7"/><path d="M222.331,382.13c0,1.312-10.937,2.375-24.425,2.375s-24.428-1.063-24.428-2.375,10.937-2.375,24.428-2.375S222.331,380.817,222.331,382.13Z" transform="translate(-169.791 -379.715)" fill="#f4f6f6"/><path d="M221.887,382.1c0,1.294-10.786,2.341-24.091,2.341s-24.091-1.047-24.091-2.341,10.786-2.344,24.091-2.344S221.887,380.806,221.887,382.1Z" transform="translate(-169.683 -379.714)" fill="#f3f6f6"/><path d="M221.442,382.07c0,1.276-10.635,2.308-23.755,2.308s-23.755-1.032-23.755-2.308,10.635-2.31,23.755-2.31S221.442,380.792,221.442,382.07Z" transform="translate(-169.574 -379.713)" fill="#f2f5f5"/><path d="M221,382.041c0,1.256-10.486,2.276-23.421,2.276s-23.421-1.02-23.421-2.276,10.486-2.279,23.421-2.279S221,380.781,221,382.041Z" transform="translate(-169.466 -379.712)" fill="#f1f4f4"/><path d="M220.557,382.01c0,1.239-10.337,2.245-23.087,2.245s-23.084-1.006-23.084-2.245,10.334-2.245,23.084-2.245S220.557,380.768,220.557,382.01Z" transform="translate(-169.357 -379.71)" fill="#f0f3f3"/><path d="M220.113,381.981c0,1.22-10.187,2.211-22.751,2.211s-22.75-.991-22.75-2.211,10.186-2.214,22.75-2.214S220.113,380.755,220.113,381.981Z" transform="translate(-169.248 -379.709)" fill="#eff2f2"/><path d="M219.669,381.95c0,1.2-10.037,2.178-22.415,2.178s-22.415-.974-22.415-2.178,10.037-2.181,22.415-2.181S219.669,380.744,219.669,381.95Z" transform="translate(-169.14 -379.708)" fill="#eef2f2"/><path d="M219.226,381.921c0,1.183-9.887,2.144-22.081,2.144s-22.08-.961-22.08-2.144,9.886-2.149,22.08-2.149S219.226,380.733,219.226,381.921Z" transform="translate(-169.032 -379.707)" fill="#edf1f1"/><path d="M218.782,381.891c0,1.167-9.736,2.113-21.746,2.113s-21.744-.946-21.744-2.113,9.735-2.118,21.744-2.118S218.782,380.721,218.782,381.891Z" transform="translate(-168.923 -379.707)" fill="#edf0f0"/><path d="M218.339,381.86c0,1.151-9.587,2.081-21.411,2.081s-21.408-.93-21.408-2.081,9.584-2.084,21.408-2.084S218.339,380.708,218.339,381.86Z" transform="translate(-168.814 -379.705)" fill="#ecefef"/><path d="M217.895,381.83c0,1.131-9.436,2.048-21.076,2.048s-21.074-.917-21.074-2.048,9.435-2.051,21.074-2.051S217.895,380.7,217.895,381.83Z" transform="translate(-168.706 -379.704)" fill="#ebeeee"/><path d="M217.451,381.8c0,1.111-9.287,2.014-20.74,2.014s-20.738-.9-20.738-2.014,9.285-2.02,20.738-2.02S217.451,380.686,217.451,381.8Z" transform="translate(-168.597 -379.703)" fill="#eaeeee"/><path d="M217.008,381.771c0,1.094-9.137,1.983-20.406,1.983s-20.4-.889-20.4-1.983,9.136-1.988,20.4-1.988S217.008,380.673,217.008,381.771Z" transform="translate(-168.489 -379.702)" fill="#e9eded"/><path d="M216.564,381.74c0,1.078-8.987,1.951-20.07,1.951s-20.069-.872-20.069-1.951,8.985-1.953,20.069-1.953S216.564,380.66,216.564,381.74Z" transform="translate(-168.38 -379.7)" fill="#e8ecec"/><path d="M216.119,381.71c0,1.059-8.836,1.918-19.734,1.918s-19.733-.859-19.733-1.918,8.834-1.921,19.733-1.921S216.119,380.648,216.119,381.71Z" transform="translate(-168.272 -379.699)" fill="#e7ebeb"/><path d="M215.677,381.679c0,1.041-8.686,1.885-19.4,1.885s-19.4-.844-19.4-1.885,8.686-1.888,19.4-1.888S215.677,380.635,215.677,381.679Z" transform="translate(-168.164 -379.698)" fill="#e6eaea"/><path d="M215.233,381.65c0,1.022-8.537,1.851-19.065,1.851s-19.063-.83-19.063-1.851,8.536-1.857,19.063-1.857S215.233,380.624,215.233,381.65Z" transform="translate(-168.055 -379.697)" fill="#e5eaea"/><path d="M214.789,381.619c0,1.006-8.386,1.82-18.729,1.82s-18.729-.815-18.729-1.82,8.386-1.823,18.729-1.823S214.789,380.612,214.789,381.619Z" transform="translate(-167.947 -379.695)" fill="#e4e9e9"/><path d="M214.346,381.59c0,.986-8.237,1.788-18.395,1.788s-18.393-.8-18.393-1.788,8.235-1.791,18.393-1.791S214.346,380.6,214.346,381.59Z" transform="translate(-167.838 -379.694)" fill="#e3e8e8"/><path d="M213.9,381.558c0,.97-8.086,1.757-18.059,1.757s-18.057-.787-18.057-1.757,8.085-1.757,18.057-1.757S213.9,380.588,213.9,381.558Z" transform="translate(-167.729 -379.693)" fill="#e2e7e7"/><path d="M213.457,381.529c0,.951-7.935,1.723-17.723,1.723s-17.722-.772-17.722-1.723,7.934-1.726,17.722-1.726S213.457,380.576,213.457,381.529Z" transform="translate(-167.621 -379.692)" fill="#e1e7e7"/><path d="M213.015,381.5c0,.933-7.786,1.692-17.389,1.692s-17.388-.759-17.388-1.692,7.784-1.692,17.388-1.692S213.015,380.563,213.015,381.5Z" transform="translate(-167.512 -379.691)" fill="#e0e6e6"/><path d="M212.57,381.47c0,.912-7.635,1.656-17.053,1.656s-17.052-.744-17.052-1.656,7.635-1.662,17.052-1.662S212.57,380.552,212.57,381.47Z" transform="translate(-167.404 -379.69)" fill="#dfe5e5"/><path d="M212.128,381.438c0,.9-7.486,1.625-16.719,1.625s-16.718-.728-16.718-1.625,7.486-1.628,16.718-1.628S212.128,380.541,212.128,381.438Z" transform="translate(-167.295 -379.689)" fill="#dee4e4"/><path d="M211.683,381.408c0,.878-7.336,1.593-16.383,1.593s-16.382-.714-16.382-1.593,7.335-1.594,16.382-1.594S211.683,380.527,211.683,381.408Z" transform="translate(-167.187 -379.687)" fill="#dde3e3"/><path d="M211.239,381.378c0,.861-7.185,1.56-16.048,1.56s-16.046-.7-16.046-1.56,7.184-1.563,16.046-1.563S211.239,380.516,211.239,381.378Z" transform="translate(-167.078 -379.686)" fill="#dce3e3"/><path d="M210.8,381.349c0,.841-7.036,1.528-15.714,1.528s-15.711-.686-15.711-1.528,7.035-1.531,15.711-1.531S210.8,380.5,210.8,381.349Z" transform="translate(-166.969 -379.685)" fill="#dbe2e2"/><path d="M210.352,381.318c0,.825-6.885,1.495-15.378,1.495s-15.376-.67-15.376-1.495,6.885-1.5,15.376-1.5S210.352,380.491,210.352,381.318Z" transform="translate(-166.861 -379.684)" fill="#dae1e1"/></g><g transform="translate(8.017)"><path d="M187.233,374.366s.859-3.928,5.9-3.521c0,0-6.353-9.864-8.7-9.812S185.9,373.393,187.233,374.366Z" transform="translate(-172.923 -345.58)" fill="#bd632e"/><path d="M195.97,374.366s-.858-3.928-5.9-3.521c0,0,6.356-9.864,8.7-9.812S197.3,373.393,195.97,374.366Z" transform="translate(-169.863 -345.58)" fill="#bd632e"/><path d="M191.53,366.876l-4.577-2.294v10.372a6.453,6.453,0,0,0,4.577,2.122c3.315,0,4.575-1.958,4.575-1.958V366.11Z" transform="translate(-171.356 -343.88)" fill="#ffdba8"/><path d="M195.678,366.981s-2.084,2.3-8.725,5.908l.015-6.462Z" transform="translate(-171.356 -342.998)" fill="#f0bd6d"/><path d="M184.946,363.1s1.149,8.888,1.387,9.319,4.729,2.881,6.215,2.77V353.684S183.7,351.818,184.946,363.1Z" transform="translate(-172.375 -349.153)" fill="#ffdba8"/><path d="M197.648,363.26s-1.145,8.888-1.384,9.319-4.728,2.881-6.215,2.77V353.842s3.478-1.275,5.88-.114C197.732,354.6,198.159,358.642,197.648,363.26Z" transform="translate(-169.874 -349.311)" fill="#ffdba8"/><path d="M194.393,365.484s1.122.541,2.181-1.958c1.219-2.872,1.148-4.114,0-4.192a1.569,1.569,0,0,0-1.542,1Z" transform="translate(-167.794 -346.395)" fill="#ffdba8"/><path d="M186.694,365.484s-1.119.541-2.18-1.958c-1.218-2.872-1.146-4.114,0-4.192a1.565,1.565,0,0,1,1.541,1Z" transform="translate(-172.949 -346.395)" fill="#ffdba8"/><path d="M188.236,364.534s.238.05.732.1C188.52,364.583,188.236,364.534,188.236,364.534Z" transform="translate(-170.742 -343.903)" fill="#fdb88d"/><g transform="translate(7.474)"><path d="M188.3,355.908s-4.188,9.806,0,23.461c0,0-12.014-9.059-4.188-23.668.972-1.806,4.626-5.942,9.974-4.973v3.923S189.525,354.333,188.3,355.908Z" transform="translate(-181.461 -350.583)" fill="#25fcf4"/><path d="M195.782,355.908s4.189,9.806,0,23.461c0,0,12.017-9.059,4.189-23.668-.972-1.806-4.626-5.942-9.976-4.973v3.923S194.557,354.333,195.782,355.908Z" transform="translate(-177.374 -350.583)" fill="#25fcf4"/><g transform="translate(5.202 2.53)"><path d="M185.068,361.387h7.33v-9.093C190.541,352.319,184.15,352.878,185.068,361.387Z" transform="translate(-184.978 -352.294)" fill="#25fcf4"/><path d="M190.234,352.294H190v9.093h7.5C198.2,352.65,191.958,352.307,190.234,352.294Z" transform="translate(-182.576 -352.294)" fill="#25fcf4"/></g></g><path d="M193.176,386.032H190.2c-.247-.174-3.722-7.855-3.7-8.713s4.083-4.6,5.165-4.6,5.327-1.254,6.43.455S193.176,386.032,193.176,386.032Z" transform="translate(-171.571 -340.198)" fill="#ccc"/><path d="M187.453,370.565l-1.545.581,2.331,8,3.716-5.609S190.442,373.134,187.453,370.565Z" transform="translate(-171.857 -341.016)" fill="#dfe1de"/><path d="M194.648,370.565l1.508.682-2.338,7.839L190,373.534S191.662,373.134,194.648,370.565Z" transform="translate(-169.899 -341.016)" fill="#faf8fa"/><g transform="translate(0 30.13)"><path d="M187.254,378.931l1.074-1.538.532-.773-1.943-3.2-.726-1.195-.012-.019s-7.586,3.463-7.6,3.483c-.538.584-1.519,5.821-2.174,10.369h16.262Z" transform="translate(-176.406 -370.359)" fill="#3b556c"/><path d="M198,378.931l-5.409,7.131h16.262c-.658-4.549-1.636-9.785-2.177-10.369-.013-.019-7.6-3.483-7.6-3.483l-2.683,4.41Z" transform="translate(-168.656 -370.359)" fill="#60768e"/><path d="M185.7,377.22l-.533.772-1.072,1.538,5.413,7.131h2.365l-.851-2.916-2.864-9.82-.863-2.968-4.278,1.851.737,1.215Z" transform="translate(-173.242 -370.958)" fill="#597d90"/><path d="M183.744,377.253l1.072-1.538-1.074,1.538,5.414,7.131h0Z" transform="translate(-172.894 -368.681)" fill="#597d90"/><path d="M183.752,373.425l-.737-1.215.012.019Z" transform="translate(-173.242 -370.359)" fill="#597d90"/><path d="M198.756,379.5l-1.606-2.311,2.683-4.41-4.166-1.75-.851,2.861-2.726,9.136-1.075,3.606h2.33Z" transform="translate(-169.411 -370.925)" fill="#3d5b73"/></g><g transform="translate(16.281 31.415)"><path d="M187.833,371.839c-.623.226-.364,2.619-.364,2.619s-.259,2.4.364,2.622,4.155-2.622,4.155-2.622S188.456,371.617,187.833,371.839Z" transform="translate(-187.416 -371.827)" fill="#3b556c"/><g transform="translate(3.212)"><path d="M193.745,371.839c-.624-.222-4.157,2.619-4.157,2.619s3.533,2.842,4.157,2.622.362-2.622.362-2.622S194.368,372.065,193.745,371.839Z" transform="translate(-189.588 -371.827)" fill="#60768e"/></g><path d="M190.855,372.938h-1.174a5.123,5.123,0,0,0,0,1.98h1.174A5.124,5.124,0,0,0,190.855,372.938Z" transform="translate(-186.375 -371.295)" fill="#48596b"/></g></g></g><g transform="translate(256.168 351.247)"><g transform="translate(0 42.435)"><path d="M284.813,382.462c0,1.51-12.583,2.731-28.11,2.731s-28.115-1.221-28.115-2.731,12.587-2.734,28.115-2.734S284.813,380.95,284.813,382.462Z" transform="translate(-228.588 -379.728)" fill="#fff"/><path d="M284.371,382.434c0,1.489-12.434,2.7-27.776,2.7s-27.781-1.208-27.781-2.7,12.438-2.7,27.781-2.7S284.371,380.937,284.371,382.434Z" transform="translate(-228.48 -379.728)" fill="#fefefe"/><path d="M283.926,382.4c0,1.473-12.283,2.666-27.44,2.666s-27.445-1.193-27.445-2.666,12.289-2.671,27.445-2.671S283.926,380.925,283.926,382.4Z" transform="translate(-228.371 -379.726)" fill="#fdfdfd"/><path d="M283.483,382.373c0,1.455-12.135,2.632-27.106,2.632s-27.109-1.177-27.109-2.632,12.136-2.638,27.109-2.638S283.483,380.912,283.483,382.373Z" transform="translate(-228.262 -379.725)" fill="#fcfdfd"/><path d="M283.038,382.343c0,1.437-11.983,2.6-26.769,2.6s-26.775-1.164-26.775-2.6,11.987-2.606,26.775-2.606S283.038,380.9,283.038,382.343Z" transform="translate(-228.154 -379.724)" fill="#fbfcfc"/><path d="M282.6,382.312c0,1.42-11.835,2.57-26.436,2.57s-26.438-1.151-26.438-2.57,11.836-2.572,26.438-2.572S282.6,380.891,282.6,382.312Z" transform="translate(-228.045 -379.722)" fill="#fafbfb"/><path d="M282.151,382.281c0,1.4-11.682,2.536-26.1,2.536s-26.105-1.134-26.105-2.536,11.688-2.539,26.105-2.539S282.151,380.878,282.151,382.281Z" transform="translate(-227.937 -379.721)" fill="#f9fafa"/><path d="M281.708,382.252c0,1.383-11.535,2.5-25.765,2.5s-25.768-1.121-25.768-2.5,11.536-2.508,25.768-2.508S281.708,380.865,281.708,382.252Z" transform="translate(-227.828 -379.72)" fill="#f8f9f9"/><path d="M281.264,382.221c0,1.366-11.384,2.471-25.429,2.471s-25.435-1.1-25.435-2.471,11.388-2.474,25.435-2.474S281.264,380.852,281.264,382.221Z" transform="translate(-227.721 -379.719)" fill="#f7f9f9"/><path d="M280.82,382.192c0,1.346-11.233,2.438-25.093,2.438s-25.1-1.093-25.1-2.438,11.237-2.442,25.1-2.442S280.82,380.84,280.82,382.192Z" transform="translate(-227.611 -379.717)" fill="#f6f8f8"/><path d="M280.377,382.161c0,1.329-11.084,2.406-24.759,2.406s-24.764-1.077-24.764-2.406,11.088-2.409,24.764-2.409S280.377,380.829,280.377,382.161Z" transform="translate(-227.503 -379.716)" fill="#f5f7f7"/><path d="M279.932,382.13c0,1.312-10.933,2.375-24.424,2.375s-24.427-1.063-24.427-2.375,10.936-2.375,24.427-2.375S279.932,380.817,279.932,382.13Z" transform="translate(-227.394 -379.715)" fill="#f4f6f6"/><path d="M279.49,382.1c0,1.294-10.785,2.341-24.089,2.341s-24.092-1.047-24.092-2.341,10.786-2.344,24.092-2.344S279.49,380.806,279.49,382.1Z" transform="translate(-227.286 -379.714)" fill="#f3f6f6"/><path d="M279.046,382.07c0,1.276-10.634,2.308-23.754,2.308s-23.758-1.032-23.758-2.308,10.637-2.31,23.758-2.31S279.046,380.792,279.046,382.07Z" transform="translate(-227.178 -379.713)" fill="#f2f5f5"/><path d="M278.6,382.041c0,1.256-10.483,2.276-23.418,2.276s-23.423-1.02-23.423-2.276,10.486-2.279,23.423-2.279S278.6,380.781,278.6,382.041Z" transform="translate(-227.069 -379.712)" fill="#f1f4f4"/><path d="M278.159,382.01c0,1.239-10.334,2.245-23.084,2.245s-23.087-1.006-23.087-2.245,10.335-2.245,23.087-2.245S278.159,380.768,278.159,382.01Z" transform="translate(-226.96 -379.71)" fill="#f0f3f3"/><path d="M277.714,381.981c0,1.22-10.184,2.211-22.748,2.211s-22.751-.991-22.751-2.211,10.184-2.214,22.751-2.214S277.714,380.755,277.714,381.981Z" transform="translate(-226.851 -379.709)" fill="#eff2f2"/><path d="M277.27,381.95c0,1.2-10.034,2.178-22.413,2.178s-22.417-.974-22.417-2.178,10.035-2.181,22.417-2.181S277.27,380.744,277.27,381.95Z" transform="translate(-226.743 -379.708)" fill="#eef2f2"/><path d="M276.828,381.921c0,1.183-9.884,2.144-22.078,2.144s-22.081-.961-22.081-2.144,9.884-2.149,22.081-2.149S276.828,380.733,276.828,381.921Z" transform="translate(-226.635 -379.707)" fill="#edf1f1"/><path d="M276.384,381.891c0,1.167-9.733,2.113-21.743,2.113s-21.747-.946-21.747-2.113,9.736-2.118,21.747-2.118S276.384,380.721,276.384,381.891Z" transform="translate(-226.526 -379.707)" fill="#edf0f0"/><path d="M275.939,381.86c0,1.151-9.583,2.081-21.407,2.081s-21.411-.93-21.411-2.081,9.585-2.084,21.411-2.084S275.939,380.708,275.939,381.86Z" transform="translate(-226.418 -379.705)" fill="#ecefef"/><path d="M275.5,381.83c0,1.131-9.435,2.048-21.073,2.048s-21.076-.917-21.076-2.048,9.435-2.051,21.076-2.051S275.5,380.7,275.5,381.83Z" transform="translate(-226.309 -379.704)" fill="#ebeeee"/><path d="M275.052,381.8c0,1.111-9.284,2.014-20.737,2.014s-20.741-.9-20.741-2.014,9.285-2.02,20.741-2.02S275.052,380.686,275.052,381.8Z" transform="translate(-226.201 -379.703)" fill="#eaeeee"/><path d="M274.608,381.771c0,1.094-9.134,1.983-20.4,1.983s-20.406-.889-20.406-1.983,9.134-1.988,20.406-1.988S274.608,380.673,274.608,381.771Z" transform="translate(-226.092 -379.702)" fill="#e9eded"/><path d="M274.166,381.74c0,1.078-8.985,1.951-20.067,1.951s-20.072-.872-20.072-1.951,8.985-1.953,20.072-1.953S274.166,380.66,274.166,381.74Z" transform="translate(-225.984 -379.7)" fill="#e8ecec"/><path d="M273.721,381.71c0,1.059-8.834,1.918-19.731,1.918s-19.736-.859-19.736-1.918,8.834-1.921,19.736-1.921S273.721,380.648,273.721,381.71Z" transform="translate(-225.875 -379.699)" fill="#e7ebeb"/><path d="M273.279,381.679c0,1.041-8.685,1.885-19.4,1.885s-19.4-.844-19.4-1.885,8.685-1.888,19.4-1.888S273.279,380.635,273.279,381.679Z" transform="translate(-225.766 -379.698)" fill="#e6eaea"/><path d="M272.835,381.65c0,1.022-8.534,1.851-19.062,1.851s-19.066-.83-19.066-1.851,8.536-1.857,19.066-1.857S272.835,380.624,272.835,381.65Z" transform="translate(-225.658 -379.697)" fill="#e5eaea"/><path d="M272.391,381.619c0,1.006-8.385,1.82-18.727,1.82s-18.729-.815-18.729-1.82,8.383-1.823,18.729-1.823S272.391,380.612,272.391,381.619Z" transform="translate(-225.549 -379.695)" fill="#e4e9e9"/><path d="M271.947,381.59c0,.986-8.235,1.788-18.392,1.788s-18.395-.8-18.395-1.788,8.235-1.791,18.395-1.791S271.947,380.6,271.947,381.59Z" transform="translate(-225.441 -379.694)" fill="#e3e8e8"/><path d="M271.5,381.558c0,.97-8.085,1.757-18.056,1.757s-18.059-.787-18.059-1.757,8.083-1.757,18.059-1.757S271.5,380.588,271.5,381.558Z" transform="translate(-225.332 -379.693)" fill="#e2e7e7"/><path d="M271.061,381.529c0,.951-7.937,1.723-17.722,1.723s-17.725-.772-17.725-1.723,7.935-1.726,17.725-1.726S271.061,380.576,271.061,381.529Z" transform="translate(-225.224 -379.692)" fill="#e1e7e7"/><path d="M270.615,381.5c0,.933-7.784,1.692-17.385,1.692s-17.389-.759-17.389-1.692,7.784-1.692,17.389-1.692S270.615,380.563,270.615,381.5Z" transform="translate(-225.115 -379.691)" fill="#e0e6e6"/><path d="M270.173,381.47c0,.912-7.636,1.656-17.052,1.656s-17.053-.744-17.053-1.656,7.634-1.662,17.053-1.662S270.173,380.552,270.173,381.47Z" transform="translate(-225.007 -379.69)" fill="#dfe5e5"/><path d="M269.728,381.438c0,.9-7.484,1.625-16.715,1.625s-16.719-.728-16.719-1.625,7.484-1.628,16.719-1.628S269.728,380.541,269.728,381.438Z" transform="translate(-224.899 -379.689)" fill="#dee4e4"/><path d="M269.285,381.408c0,.878-7.335,1.593-16.38,1.593s-16.384-.714-16.384-1.593,7.333-1.594,16.384-1.594S269.285,380.527,269.285,381.408Z" transform="translate(-224.79 -379.687)" fill="#dde3e3"/><path d="M268.841,381.378c0,.861-7.184,1.56-16.045,1.56s-16.048-.7-16.048-1.56,7.184-1.563,16.048-1.563S268.841,380.516,268.841,381.378Z" transform="translate(-224.681 -379.686)" fill="#dce3e3"/><path d="M268.4,381.349c0,.841-7.036,1.528-15.711,1.528s-15.712-.686-15.712-1.528,7.033-1.531,15.712-1.531S268.4,380.5,268.4,381.349Z" transform="translate(-224.572 -379.685)" fill="#dbe2e2"/><path d="M267.954,381.318c0,.825-6.885,1.495-15.375,1.495s-15.378-.67-15.378-1.495,6.884-1.5,15.378-1.5S267.954,380.491,267.954,381.318Z" transform="translate(-224.464 -379.684)" fill="#dae1e1"/></g><g transform="translate(7.749 0)"><path d="M249.263,367.455l-5.142-2.578v11.653a7.239,7.239,0,0,0,5.142,2.387c3.725,0,5.145-2.2,5.145-2.2V366.595Z" transform="translate(-228.9 -344.403)" fill="#ffdba8"/><path d="M254.407,368.3s-2.458,2.265-10.286,6.517l.015-7.617Z" transform="translate(-228.9 -343.29)" fill="#f0bd6d"/><path d="M248.626,372.452v4.336l-1.3.47-1.874-3.188A7.441,7.441,0,0,1,248.626,372.452Z" transform="translate(-228.264 -340.776)" fill="#598997"/><path d="M244.446,370.478l-.992.509,2.366,8.1,3.762-5.687S247.473,373.079,244.446,370.478Z" transform="translate(-229.219 -341.722)" fill="#dfe1de"/><g transform="translate(10.988)"><path d="M242.229,364.134s1.217,9.423,1.47,9.883,5.009,3.051,6.587,2.941V354.152S240.32,350.012,242.229,364.134Z" transform="translate(-240.911 -349.809)" fill="#ffdba8"/><path d="M255.657,363.99s-1.216,9.423-1.47,9.883-5.013,3.051-6.589,2.941V354.009S256.972,352.03,255.657,363.99Z" transform="translate(-238.224 -349.665)" fill="#ffdba8"/><path d="M252.084,366.676s1.4.519,2.255-2.226c.989-3.162.308-4.581-.59-4.491a1.888,1.888,0,0,0-.75.205,1.784,1.784,0,0,0-.77,1.006Z" transform="translate(-236.076 -346.76)" fill="#ffdba8"/><path d="M244,366.676s-1.393.519-2.255-2.226c-.985-3.162-.3-4.581.592-4.491a1.889,1.889,0,0,1,.753.205,1.807,1.807,0,0,1,.772,1.006Z" transform="translate(-241.259 -346.76)" fill="#ffdba8"/><g transform="translate(0.238)"><g transform="translate(0 3.956)"><path d="M241.609,355.606c-.692,1.893.731,7.529.731,7.529l.932,1.439-.223-3.163s1.983-4.293,1.442-5.887l-1.258-1.816A8.711,8.711,0,0,0,241.609,355.606Z" transform="translate(-241.42 -353.707)" fill="#25fcf4"/></g><g transform="translate(15.11 3.956)"><path d="M254.612,355.606c.688,1.893-.729,7.529-.729,7.529l-.929,1.439.22-3.163s-1.986-4.293-1.443-5.887l1.257-1.816A8.667,8.667,0,0,1,254.612,355.606Z" transform="translate(-251.638 -353.707)" fill="#25fcf4"/></g><path d="M249.969,351.032c-2.388,0-5.838,1.081-7.324,3.956L243.9,356.8a19.113,19.113,0,0,0,6.159,2.011c1.746.127,4.538.211,6.665-1.468l.566-2.359S255.571,351.044,249.969,351.032Z" transform="translate(-240.833 -351.032)" fill="#25fcf4"/></g></g><path d="M247.6,372.452v4.336l1.306.47,1.874-3.188A7.428,7.428,0,0,0,247.6,372.452Z" transform="translate(-227.235 -340.776)" fill="#4dbbc9"/><path d="M252.743,370.424l1.094.689-2.366,7.94-3.873-5.63S249.713,373.021,252.743,370.424Z" transform="translate(-227.235 -341.747)" fill="#faf8fa"/><g transform="translate(0 29.266)"><path d="M244.826,378.9l1.081-1.56.543-.782-1.968-3.24-.738-1.207-.012-.019s-7.684,3.509-7.7,3.522c-.546.594-1.542,5.9-2.208,10.507H250.3Z" transform="translate(-233.828 -370.215)" fill="#3b556c"/><path d="M255.709,378.9l-5.483,7.221H266.7c-.667-4.608-1.655-9.912-2.206-10.507-.009-.013-7.7-3.522-7.7-3.522l-2.714,4.466Z" transform="translate(-225.977 -370.215)" fill="#60768e"/><path d="M248.358,384.542v-9.158l-1.3.47s-.841,3.8-1.046,5.735l.859,2.953Z" transform="translate(-227.995 -368.638)" fill="#598997"/><path d="M249.087,384.542l.862-2.953c-.206-1.937-1.045-5.735-1.045-5.735l-1.306-.47v9.158Z" transform="translate(-227.235 -368.638)" fill="#4dbbc9"/><path d="M243.243,377.164l-.543.781-1.082,1.561,5.479,7.221h2.4l-.859-2.953-2.9-9.949-.879-3-4.331,1.874.749,1.226Z" transform="translate(-230.621 -370.822)" fill="#597d90"/><path d="M256.473,379.474l-1.625-2.342,2.713-4.467-4.218-1.775-.864,2.9-2.76,9.251-1.09,3.655h2.36Z" transform="translate(-226.741 -370.79)" fill="#3d5b73"/></g></g></g><g transform="translate(212.715 403.879)"><g transform="translate(0 43.029)"><path d="M253.788,417.559c0,1.015-12.218,1.837-27.293,1.837s-27.291-.822-27.291-1.837,12.219-1.838,27.291-1.838S253.788,416.542,253.788,417.559Z" transform="translate(-199.204 -415.721)" fill="#fff"/><path d="M253.357,417.538c0,1-12.073,1.816-26.967,1.816s-26.967-.812-26.967-1.816,12.074-1.815,26.967-1.815S253.357,416.535,253.357,417.538Z" transform="translate(-199.099 -415.72)" fill="#fefefe"/><path d="M252.928,417.519c0,.989-11.928,1.792-26.643,1.792s-26.64-.8-26.64-1.792,11.928-1.794,26.64-1.794S252.928,416.527,252.928,417.519Z" transform="translate(-198.993 -415.719)" fill="#fdfdfd"/><path d="M252.5,417.5c0,.979-11.781,1.772-26.316,1.772s-26.315-.793-26.315-1.772,11.781-1.772,26.315-1.772S252.5,416.519,252.5,417.5Z" transform="translate(-198.888 -415.719)" fill="#fcfdfd"/><path d="M252.063,417.478c0,.967-11.634,1.749-25.99,1.749s-25.99-.782-25.99-1.749,11.637-1.751,25.99-1.751S252.063,416.511,252.063,417.478Z" transform="translate(-198.783 -415.718)" fill="#fbfcfc"/><path d="M251.636,417.458c0,.955-11.49,1.727-25.667,1.727s-25.664-.772-25.664-1.727,11.492-1.73,25.664-1.73S251.636,416.5,251.636,417.458Z" transform="translate(-198.677 -415.718)" fill="#fafbfb"/><path d="M251.2,417.438c0,.942-11.344,1.705-25.34,1.705s-25.339-.763-25.339-1.705,11.345-1.708,25.339-1.708S251.2,416.495,251.2,417.438Z" transform="translate(-198.572 -415.717)" fill="#f9fafa"/><path d="M250.773,417.416c0,.932-11.2,1.684-25.015,1.684s-25.014-.753-25.014-1.684,11.2-1.684,25.014-1.684S250.773,416.486,250.773,417.416Z" transform="translate(-198.467 -415.716)" fill="#f8f9f9"/><path d="M250.341,417.4c0,.918-11.051,1.662-24.688,1.662s-24.69-.744-24.69-1.662,11.055-1.662,24.69-1.662S250.341,416.478,250.341,417.4Z" transform="translate(-198.362 -415.715)" fill="#f7f9f9"/><path d="M249.911,417.378c0,.906-10.906,1.639-24.365,1.639s-24.362-.732-24.362-1.639,10.908-1.641,24.362-1.641S249.911,416.47,249.911,417.378Z" transform="translate(-198.255 -415.714)" fill="#f6f8f8"/><path d="M249.481,417.356c0,.9-10.761,1.618-24.039,1.618s-24.038-.722-24.038-1.618,10.763-1.619,24.038-1.619S249.481,416.463,249.481,417.356Z" transform="translate(-198.151 -415.713)" fill="#f5f7f7"/><path d="M249.05,417.336c0,.883-10.615,1.6-23.714,1.6s-23.712-.713-23.712-1.6,10.618-1.6,23.712-1.6S249.05,416.455,249.05,417.336Z" transform="translate(-198.045 -415.712)" fill="#f4f6f6"/><path d="M248.62,417.316c0,.871-10.471,1.573-23.388,1.573s-23.387-.7-23.387-1.573,10.471-1.575,23.387-1.575S248.62,416.446,248.62,417.316Z" transform="translate(-197.94 -415.712)" fill="#f3f6f6"/><ellipse cx="23.063" cy="1.552" rx="23.063" ry="1.552" transform="translate(4.229 0.031)" fill="#f2f5f5"/><path d="M247.758,417.275c0,.847-10.18,1.532-22.738,1.532s-22.736-.685-22.736-1.532,10.18-1.531,22.736-1.531S247.758,416.43,247.758,417.275Z" transform="translate(-197.729 -415.71)" fill="#f1f4f4"/><path d="M247.327,417.256c0,.834-10.034,1.508-22.412,1.508s-22.41-.674-22.41-1.508,10.034-1.51,22.41-1.51S247.327,416.422,247.327,417.256Z" transform="translate(-197.624 -415.709)" fill="#f0f3f3"/><path d="M246.9,417.234c0,.822-9.887,1.486-22.087,1.486s-22.084-.664-22.084-1.486,9.887-1.486,22.084-1.486S246.9,416.414,246.9,417.234Z" transform="translate(-197.518 -415.708)" fill="#eff2f2"/><path d="M246.465,417.213c0,.81-9.741,1.465-21.76,1.465s-21.76-.655-21.76-1.465,9.744-1.464,21.76-1.464S246.465,416.406,246.465,417.213Z" transform="translate(-197.413 -415.708)" fill="#eef2f2"/><path d="M246.034,417.194c0,.8-9.6,1.442-21.435,1.442s-21.435-.643-21.435-1.442,9.6-1.443,21.435-1.443S246.034,416.4,246.034,417.194Z" transform="translate(-197.308 -415.707)" fill="#edf1f1"/><path d="M245.6,417.173c0,.787-9.451,1.421-21.111,1.421s-21.108-.634-21.108-1.421,9.451-1.421,21.108-1.421S245.6,416.391,245.6,417.173Z" transform="translate(-197.202 -415.706)" fill="#edf0f0"/><path d="M245.174,417.153c0,.775-9.306,1.4-20.786,1.4s-20.784-.626-20.784-1.4,9.307-1.4,20.784-1.4S245.174,416.383,245.174,417.153Z" transform="translate(-197.097 -415.705)" fill="#ecefef"/><path d="M244.742,417.134c0,.76-9.158,1.375-20.459,1.375s-20.458-.615-20.458-1.375,9.16-1.378,20.458-1.378S244.742,416.374,244.742,417.134Z" transform="translate(-196.992 -415.704)" fill="#ebeeee"/><path d="M244.311,417.113c0,.751-9.012,1.356-20.134,1.356s-20.134-.6-20.134-1.356,9.016-1.355,20.134-1.355S244.311,416.366,244.311,417.113Z" transform="translate(-196.887 -415.703)" fill="#eaeeee"/><path d="M243.882,417.093c0,.738-8.868,1.334-19.81,1.334s-19.807-.6-19.807-1.334,8.87-1.334,19.807-1.334S243.882,416.358,243.882,417.093Z" transform="translate(-196.781 -415.703)" fill="#e9eded"/><path d="M243.45,417.071c0,.728-8.722,1.312-19.483,1.312s-19.483-.584-19.483-1.312,8.725-1.31,19.483-1.31S243.45,416.35,243.45,417.071Z" transform="translate(-196.676 -415.702)" fill="#e8ecec"/><path d="M243.019,417.053c0,.713-8.577,1.288-19.158,1.288s-19.156-.575-19.156-1.288,8.577-1.289,19.156-1.289S243.019,416.341,243.019,417.053Z" transform="translate(-196.57 -415.701)" fill="#e7ebeb"/><path d="M242.588,417.031c0,.7-8.431,1.267-18.832,1.267s-18.831-.565-18.831-1.267,8.432-1.267,18.831-1.267S242.588,416.333,242.588,417.031Z" transform="translate(-196.465 -415.7)" fill="#e6eaea"/><path d="M242.158,417.01c0,.691-8.284,1.248-18.507,1.248s-18.506-.557-18.506-1.248,8.286-1.244,18.506-1.244S242.158,416.327,242.158,417.01Z" transform="translate(-196.36 -415.7)" fill="#e5eaea"/><path d="M241.727,416.991c0,.677-8.139,1.223-18.182,1.223s-18.18-.546-18.18-1.223,8.141-1.223,18.18-1.223S241.727,416.318,241.727,416.991Z" transform="translate(-196.254 -415.699)" fill="#e4e9e9"/><path d="M241.3,416.969c0,.667-7.994,1.2-17.856,1.2s-17.855-.537-17.855-1.2,7.994-1.2,17.855-1.2S241.3,416.31,241.3,416.969Z" transform="translate(-196.149 -415.698)" fill="#e3e8e8"/><path d="M240.867,416.95c0,.655-7.851,1.18-17.533,1.18s-17.53-.525-17.53-1.18,7.849-1.179,17.53-1.179S240.867,416.3,240.867,416.95Z" transform="translate(-196.044 -415.697)" fill="#e2e7e7"/><path d="M240.435,416.93c0,.642-7.7,1.159-17.206,1.159s-17.2-.518-17.2-1.159,7.7-1.158,17.2-1.158S240.435,416.294,240.435,416.93Z" transform="translate(-195.938 -415.697)" fill="#e1e7e7"/><path d="M240,416.91c0,.63-7.558,1.136-16.88,1.136s-16.879-.506-16.879-1.136,7.558-1.136,16.879-1.136S240,416.286,240,416.91Z" transform="translate(-195.833 -415.696)" fill="#e0e6e6"/><path d="M239.572,416.889c0,.618-7.41,1.115-16.554,1.115s-16.554-.5-16.554-1.115,7.413-1.114,16.554-1.114S239.572,416.278,239.572,416.889Z" transform="translate(-195.728 -415.695)" fill="#dfe5e5"/><path d="M239.143,416.87c0,.6-7.265,1.093-16.23,1.093s-16.228-.488-16.228-1.093,7.268-1.093,16.228-1.093S239.143,416.269,239.143,416.87Z" transform="translate(-195.622 -415.694)" fill="#dee4e4"/><path d="M238.712,416.848c0,.593-7.12,1.072-15.9,1.072s-15.9-.479-15.9-1.072,7.122-1.069,15.9-1.069S238.712,416.261,238.712,416.848Z" transform="translate(-195.517 -415.693)" fill="#dde3e3"/><path d="M238.282,416.829c0,.581-6.975,1.048-15.579,1.048s-15.578-.467-15.578-1.048,6.975-1.049,15.578-1.049S238.282,416.255,238.282,416.829Z" transform="translate(-195.412 -415.693)" fill="#dce3e3"/><path d="M237.85,416.808c0,.569-6.829,1.026-15.254,1.026s-15.251-.457-15.251-1.026,6.829-1.026,15.251-1.026S237.85,416.246,237.85,416.808Z" transform="translate(-195.306 -415.692)" fill="#dbe2e2"/><path d="M237.42,416.788c0,.557-6.684,1.006-14.928,1.006s-14.927-.448-14.927-1.006,6.684-1,14.927-1S237.42,416.238,237.42,416.788Z" transform="translate(-195.201 -415.691)" fill="#dae1e1"/></g><g transform="translate(6.49)"><path d="M224.618,388.133c3.8,2.223,4.972,4.343,4.707,25.587l-11.39,0-.157-27.084A13.861,13.861,0,0,1,224.618,388.133Z" transform="translate(-196.801 -386.623)" fill="#25fcf4"/><path d="M214.9,388.133c-3.8,2.223-4.973,4.343-4.708,25.587l11.39,0,.158-27.084A13.863,13.863,0,0,0,214.9,388.133Z" transform="translate(-200.449 -386.623)" fill="#25fcf4"/><path d="M219.4,402.427l-5.015-2.514v11.372a7.068,7.068,0,0,0,5.015,2.325c3.633,0,5.015-2.14,5.015-2.14v-9.88Z" transform="translate(-198.424 -380.26)" fill="#ffdba8"/><path d="M224.418,403.253s-2.394,2.208-10.029,6.36l.015-7.432Z" transform="translate(-198.424 -379.174)" fill="#f0bd6d"/><g transform="translate(12.521 1.736)"><path d="M212.187,399.009s1.257,9.745,1.52,10.215,5.18,3.16,6.811,3.04V387.8C218.608,387.8,210.991,388.25,212.187,399.009Z" transform="translate(-212.06 -387.797)" fill="#ffdba8"/><path d="M217.9,387.8h-.118v24.468c1.631.12,6.551-2.569,6.811-3.04s1.52-10.215,1.52-10.215C227.033,388.229,219.867,387.815,217.9,387.8Z" transform="translate(-209.322 -387.797)" fill="#ffdba8"/></g><path d="M213.534,401.328s-1.131.541-1.94-2.064c-1.013-3.27-.9-4.317-.084-4.311a1.674,1.674,0,0,1,1.612.785Z" transform="translate(-200.111 -382.635)" fill="#ffdba8"/><path d="M220.851,386.63h-.276c-2.171.025-10.217,1.656-8.36,12.658a26.674,26.674,0,0,0,8.36-2.566,23.639,23.639,0,0,0,6.465-5.684C227.542,387.733,222.864,386.64,220.851,386.63Z" transform="translate(-199.597 -386.62)" fill="#25fcf4"/><path d="M221.509,421.311h-3.1s-5.3-9.637-5.276-10.48S220,407.885,220,407.885a52.526,52.526,0,0,1,6.279.318C228.159,408.9,224.317,418.2,221.509,421.311Z" transform="translate(-199.025 -376.443)" fill="#f2f2f2"/><path d="M222.046,388.965a13.51,13.51,0,0,0,2.048,9.205c2.947,4.346.942-5.789.942-5.789S222.9,388.965,222.046,388.965Z" transform="translate(-194.82 -385.502)" fill="#25fcf4"/><path d="M222.892,401.228s1.232.3,1.86-2.345c.728-3.058.566-3.713-.24-3.839-.7-.1-1.468.655-1.468.655Z" transform="translate(-194.353 -382.596)" fill="#ffdba8"/><rect width="2.069" height="13.426" transform="translate(19.945 31.441)" fill="#f8f8f8"/><g transform="translate(20.974 28.074)"><path d="M222.807,405.608s-.722,2.518-5.031,3.367c0,0,1.538,4.188,5.609,2.578C227.619,409.877,225.538,406.645,222.807,405.608Z" transform="translate(-217.776 -405.608)" fill="#e5e5e5"/></g><g transform="translate(12.957 27.986)"><path d="M215.356,405.548s.707,2.607,5.016,3.456c0,0-1.538,4.188-5.608,2.577C210.53,409.906,212.623,406.583,215.356,405.548Z" transform="translate(-212.355 -405.548)" fill="#d7d7d7"/></g><g transform="translate(0 28.527)"><path d="M214.885,414.213,216,412.607l.556-.8-2.021-3.33-.757-1.244-.013-.021s-7.894,3.608-7.9,3.626c-.565.606-1.581,6.059-2.266,10.791h16.923Z" transform="translate(-203.593 -405.291)" fill="#bfbfbf"/><path d="M226.071,414.213l-5.636,7.419h16.929c-.685-4.732-1.705-10.184-2.267-10.791-.012-.018-7.907-3.626-7.907-3.626l-2.79,4.595Z" transform="translate(-195.529 -405.291)" fill="#d1d1d1"/><path d="M213.262,412.433l-.556.8-1.112,1.606,5.63,7.418h2.461l-.884-3.033L215.822,409l-.9-3.085-4.453,1.924.77,1.265Z" transform="translate(-200.3 -405.914)" fill="#9e9e9e"/><path d="M226.854,414.8l-1.671-2.4,2.791-4.6-4.336-1.82-.887,2.978-2.834,9.505-1.12,3.753h2.422Z" transform="translate(-196.314 -405.88)" fill="#c2c2c2"/></g><g transform="translate(20.144 34.702)"><path d="M217.215,410.869a.773.773,0,0,0,.767.769V410.09A.774.774,0,0,0,217.215,410.869Z" transform="translate(-217.215 -410.09)" fill="#f7f7f7"/><path d="M217.737,410.09h0v1.548l.013,0a.776.776,0,1,0-.01-1.551Z" transform="translate(-216.966 -410.09)" fill="#fff"/><g transform="translate(0.316 0.605)"><path d="M217.768,410.67a.168.168,0,0,1-.169.17.169.169,0,0,1,0-.339A.169.169,0,0,1,217.768,410.67Z" transform="translate(-217.429 -410.498)" fill="#c9c9c9"/><path d="M218.189,410.668a.172.172,0,1,1-.172-.169A.171.171,0,0,1,218.189,410.668Z" transform="translate(-217.23 -410.499)" fill="#d4d4d4"/></g></g><g transform="translate(20.153 41.182)"><path d="M217.221,415.253a.778.778,0,0,0,.769.773v-1.553A.779.779,0,0,0,217.221,415.253Z" transform="translate(-217.221 -414.471)" fill="#f7f7f7"/><path d="M217.744,414.472l0,0v1.553h.013a.778.778,0,0,0-.01-1.556Z" transform="translate(-216.972 -414.472)" fill="#fff"/><g transform="translate(0.315 0.608)"><path d="M217.776,415.052a.171.171,0,1,1-.342,0,.166.166,0,0,1,.17-.167A.164.164,0,0,1,217.776,415.052Z" transform="translate(-217.434 -414.881)" fill="#c9c9c9"/><path d="M218.194,415.05a.176.176,0,0,1-.17.176.171.171,0,0,1-.172-.172.167.167,0,0,1,.169-.172A.171.171,0,0,1,218.194,415.05Z" transform="translate(-217.234 -414.883)" fill="#d4d4d4"/></g></g></g></g><path d="M243.072,362.644c-6.49-4.634-13.485-8.033-22.874-6.61-.192-1.158-.3-2.092-.488-3.253a137.526,137.526,0,0,0-11.734,8.407c7.324,1.519,10.365,2.407,13.674,3.305q-.288-1.73-.574-3.466A46.572,46.572,0,0,1,243.072,362.644Z" transform="translate(17.711 1.052)" fill="#e6f4f3"/><path d="M236.337,420.6c6.919-3.962,12.93-8.9,15.554-18.025,1.13.309,2.03.6,3.16.915a137.943,137.943,0,0,0-2.74-14.174c-4.438,6.023-6.514,8.416-8.713,11.048,1.133.308,2.258.62,3.391.927A46.553,46.553,0,0,1,236.337,420.6Z" transform="translate(31.29 18.545)" fill="#e6f4f3"/><path d="M186.934,388.647c-.41,7.959.492,15.685,6.746,22.831-.869.784-1.6,1.38-2.477,2.165a137.273,137.273,0,0,0,13.4,5.361c-2.665-6.989-3.552-10.026-4.578-13.3q-1.309,1.173-2.614,2.353A46.62,46.62,0,0,1,186.934,388.647Z" transform="translate(7.596 18.224)" fill="#e6f4f3"/></g></svg>